<?xml version="1.0" standalone="no"?><!DOCTYPE svg PUBLIC "-//W3C//DTD SVG 1.1//EN" "http://www.w3.org/Graphics/SVG/1.1/DTD/svg11.dtd"><svg t="1685792967827" class="icon" viewBox="0 0 1024 1024" version="1.1" xmlns="http://www.w3.org/2000/svg" p-id="2387" xmlns:xlink="http://www.w3.org/1999/xlink" width="200" height="200"><path d="M759.808 397.312c-25.6-25.6-67.072-25.6-92.672 0l-87.552 87.552c0.512-2.56 0.512-5.632 0.512-8.704V148.992c0-36.352-29.184-65.536-65.536-65.536S449.536 112.64 449.536 148.992V476.16c0 5.12 0.512 10.24 1.536 14.848L350.208 414.72c-28.672-21.504-70.144-15.872-91.648 12.8-21.504 28.672-15.872 70.144 12.8 91.648l208.896 157.696c5.12 4.096 11.264 7.168 16.896 9.216 24.576 13.312 56.32 9.216 77.312-11.264l185.344-185.344c25.6-25.088 25.6-66.56 0-92.16z m-236.032 143.872l-2.56 2.56-2.56-2.048c1.536-0.512 3.072-0.512 5.12-0.512z" fill="" p-id="2388"></path><path d="M900.608 975.36h-778.24c-58.88 0-106.496-47.616-106.496-106.496v-261.632c0-22.528 18.432-40.96 40.96-40.96s40.96 18.432 40.96 40.96v261.632c0 13.312 10.752 24.576 24.576 24.576h778.24c13.312 0 24.576-10.752 24.576-24.576v-261.632c0-22.528 18.432-40.96 40.96-40.96s40.96 18.432 40.96 40.96v261.632c-0.512 58.368-48.128 106.496-106.496 106.496z" fill="" p-id="2389"></path></svg>