<?xml version="1.0" standalone="no"?><!DOCTYPE svg PUBLIC "-//W3C//DTD SVG 1.1//EN" "http://www.w3.org/Graphics/SVG/1.1/DTD/svg11.dtd"><svg t="1686051866909" class="icon" viewBox="0 0 1024 1024" version="1.1" xmlns="http://www.w3.org/2000/svg" p-id="2103" xmlns:xlink="http://www.w3.org/1999/xlink" width="1024" height="1024"><path d="M556.297 172.715a42.407 42.407 0 0 1 42.426 42.398l0.837 267.69c-0.118 1.703 0.63 2.737 1.408 2.737 0.63 0 1.29-0.699 1.506-2.284l37.74-208.953c3.732-20.672 21.844-36.166 42.162-36.166a40.074 40.074 0 0 1 7.136 0.64c23.064 4.164 38.391 27.562 34.217 50.587l-33.656 244.529c0 2.559 0.483 4.478 1.32 4.478 0.58 0 1.328-0.935 2.175-3.218l50.144-134.063c6.27-17.65 23.034-29.403 40.793-29.403A39.798 39.798 0 0 1 797.892 374c22.08 7.875 33.626 33.41 25.78 55.47l-87.904 287.191c-0.453 1.585-0.984 3.16-1.437 4.725l-0.187 0.591v0.128a187.031 187.031 0 0 1-177.847 129.1c-53.156 0-108.42-18.752-150.472-51-45.419-27.336-190.968-183.783-190.968-183.783-22.09-22.07-18.792-55.882 3.297-77.962 11.537-11.537 25.919-17.6 40.173-17.6 13.033 0 25.967 5.05 36.51 15.592l63.138 63.157c8.603 8.594 18.132 12.699 26.922 12.699a26.952 26.952 0 0 0 20.88-9.893c7.658-9.037 4.635-36.914 2.49-54.594l-31.668-260.259c-2.825-23.26 13.781-45.724 37.003-48.549a40.497 40.497 0 0 1 4.853-0.295c21.282 0 39.749 16.98 42.387 38.597l34.926 204.425c0.905 2.54 2.342 4.036 3.602 4.036s2.353-1.496 2.58-4.922l11.88-265.741a42.417 42.417 0 0 1 42.467-42.398m0-70.875a113.36 113.36 0 0 0-104.344 69.153c-0.246 0.57-0.482 1.152-0.718 1.732a111.234 111.234 0 0 0-90.022 10.976 113.597 113.597 0 0 0-32.415 29.207 115.23 115.23 0 0 0-19.067 38.489 113.843 113.843 0 0 0-3.465 44.68l21.36 175.77a120.842 120.842 0 0 0-69.3-21.863c-33.468 0-65.549 13.614-90.286 38.332-23.212 23.202-36.993 53.363-38.863 84.952a120.92 120.92 0 0 0 34.502 92.216c5.532 5.906 39.64 42.407 79.203 82.412 74.586 75.422 105.328 99.648 122.702 110.771 53.973 40.36 123.254 63.414 190.674 63.414A257.906 257.906 0 0 0 801.14 745.1c0.247-0.709 0.483-1.417 0.7-2.136l0.117-0.374a178.56 178.56 0 0 0 1.723-5.64l87.413-285.578a113.203 113.203 0 0 0 5.729-42.86 115.585 115.585 0 0 0-35.772-77.135 111.431 111.431 0 0 0-67.45-30.19l0.148-0.985a113.676 113.676 0 0 0-1.201-43.155 115.408 115.408 0 0 0-16.872-39.523 113.774 113.774 0 0 0-30.703-30.968 111.077 111.077 0 0 0-84.981-17.06 113.203 113.203 0 0 0-103.694-67.656z" p-id="2104"></path></svg>