<?xml version="1.0" standalone="no"?><!DOCTYPE svg PUBLIC "-//W3C//DTD SVG 1.1//EN" "http://www.w3.org/Graphics/SVG/1.1/DTD/svg11.dtd"><svg t="1685863906656" class="icon" viewBox="0 0 1024 1024" version="1.1" xmlns="http://www.w3.org/2000/svg" p-id="4099" xmlns:xlink="http://www.w3.org/1999/xlink" width="1024" height="1024"><path d="M914.285714 0a109.714286 109.714286 0 0 1 44.032 210.212571v603.574858a109.714286 109.714286 0 1 1-144.530285 144.530285H210.212571A109.714286 109.714286 0 1 1 65.828571 813.714286v-603.428572A109.714286 109.714286 0 1 1 210.285714 65.828571h603.428572A109.714286 109.714286 0 0 1 914.285714 0z m0 877.714286a36.571429 36.571429 0 1 0 0 73.142857 36.571429 36.571429 0 0 0 0-73.142857z m-804.571428 0a36.571429 36.571429 0 1 0 0 73.142857 36.571429 36.571429 0 0 0 0-73.142857z m704.073143-723.894857H210.212571c-11.044571 25.161143-31.232 45.348571-56.393142 56.393142v603.574858c25.234286 11.117714 45.494857 31.378286 56.466285 56.612571h603.428572c10.971429-25.307429 31.378286-45.641143 56.685714-56.685714v-603.428572a110.153143 110.153143 0 0 1-56.612571-56.466285zM555.885714 753.371429a14.628571 14.628571 0 0 1-14.628571 14.628571h-58.514286a14.628571 14.628571 0 0 1-14.628571-14.628571l-0.073143-373.101715L343.771429 380.342857a14.628571 14.628571 0 0 1-14.628572-14.628571v-58.514286c0-8.045714 6.582857-14.628571 14.628572-14.628571h336.457142c8.045714 0 14.628571 6.582857 14.628572 14.628571V365.714286a14.628571 14.628571 0 0 1-14.628572 14.628571l-124.342857-0.073143V753.371429zM914.285714 73.142857a36.571429 36.571429 0 1 0 0 73.142857 36.571429 36.571429 0 0 0 0-73.142857z m-804.571428 0a36.571429 36.571429 0 1 0 0 73.142857 36.571429 36.571429 0 0 0 0-73.142857z" fill-opacity=".65" p-id="4100"></path></svg>