<svg t="1677505021534" class="icon" viewBox="0 0 1169 1024" version="1.1" xmlns="http://www.w3.org/2000/svg" p-id="3611" width="200" height="200"><path d="M614.4 793.055319c8.714894 8.714894 13.07234 17.429787 13.07234 26.144681 0 13.07234-4.357447 21.787234-13.07234 26.144681-8.714894 8.714894-17.429787 13.07234-30.502128 13.07234s-21.787234-4.357447-26.144681-13.07234c-8.714894-8.714894-13.07234-17.429787-13.07234-26.144681 0-13.07234 4.357447-21.787234 13.07234-26.144681 8.714894-8.714894 17.429787-13.07234 26.144681-13.07234s21.787234 4.357447 30.502128 13.07234zM610.042553 300.66383l-8.714893 413.957447H566.468085l-8.714894-413.957447H610.042553z" fill="#bfcbd9" p-id="3612"></path><path d="M583.897872 43.574468l540.323405 936.851064H43.574468L583.897872 43.574468m0-43.574468c-17.429787 0-30.502128 8.714894-39.217021 21.787234L4.357447 958.638298c-8.714894 13.07234-8.714894 30.502128 0 43.574468s21.787234 21.787234 39.217021 21.787234h1080.646809c17.429787 0 30.502128-8.714894 39.217021-21.787234s8.714894-30.502128 0-43.574468L623.114894 21.787234c-8.714894-13.07234-21.787234-21.787234-39.217022-21.787234z" p-id="3613"></path></svg>