<svg t="1678502732366" class="icon" viewBox="0 0 1024 1024" version="1.1" xmlns="http://www.w3.org/2000/svg" p-id="2793" width="200" height="200"><path d="M768 733.866667L674.133333 640H392.533333L298.666667 733.866667V810.666667h469.333333v-76.8z m42.666667-17.066667V853.333333H256v-136.533333L375.466667 597.333333h311.466666l123.733334 119.466667z m-85.333334-354.133333c0 106.666667-85.333333 192-192 192S341.333333 469.333333 341.333333 362.666667 426.666667 170.666667 533.333333 170.666667 725.333333 256 725.333333 362.666667z m-42.666666 0C682.666667 281.6 614.4 213.333333 533.333333 213.333333S384 281.6 384 362.666667s68.266667 149.333333 149.333333 149.333333S682.666667 443.733333 682.666667 362.666667z" p-id="2794"></path></svg>