<svg t="1677502654570" class="icon" viewBox="0 0 1024 1024" version="1.1" xmlns="http://www.w3.org/2000/svg" p-id="3001" width="200" height="200"><path d="M150.2 595.5c14.6 14.6 38.2 14.6 52.7 0 14.6-14.6 14.6-38.2 0-52.7-14.5-14.6-38.2-14.6-52.7 0s-14.5 38.2 0 52.7z" fill="#bfcbd9" p-id="3002"></path><path d="M176.6 625.1c-14.3 0-28.6-5.4-39.6-16.3-21.8-21.8-21.8-57.3 0-79.1 10.6-10.6 24.6-16.4 39.6-16.4 14.9 0 29 5.8 39.5 16.4 10.5 10.5 16.4 24.6 16.4 39.5 0 14.9-5.8 29-16.4 39.6-10.8 10.8-25.2 16.3-39.5 16.3z m-13.2-42.7c7.3 7.2 19.1 7.2 26.4 0 3.5-3.5 5.5-8.2 5.5-13.2s-1.9-9.7-5.5-13.2c-3.5-3.6-8.2-5.5-13.2-5.5s-9.7 1.9-13.2 5.5c-7.2 7.2-7.2 19.1 0 26.4z" fill="#bfcbd9" p-id="3003"></path><path d="M374 371.8c14.6 14.6 38.2 14.6 52.7 0 14.6-14.6 14.6-38.2 0-52.7-14.5-14.6-38.2-14.6-52.7 0-14.5 14.5-14.5 38.1 0 52.7z" fill="#bfcbd9" p-id="3004"></path><path d="M400.4 401.3c-14.3 0-28.6-5.4-39.6-16.4-21.8-21.8-21.8-57.3 0-79.1 10.6-10.6 24.6-16.4 39.6-16.4 14.9 0 29 5.8 39.5 16.4 21.8 21.8 21.8 57.3 0 79.1-10.9 11-25.2 16.4-39.5 16.4z m0-74.6c-5 0-9.7 1.9-13.2 5.5-7.3 7.3-7.3 19.1 0 26.4 7.3 7.3 19.1 7.3 26.4 0 7.3-7.3 7.3-19.1 0-26.4-3.5-3.5-8.2-5.5-13.2-5.5z" fill="#bfcbd9" p-id="3005"></path><path d="M120.7 718.3h111.9v149.2H120.7z" fill="#bfcbd9" p-id="3006"></path><path d="M232.6 886.2H120.7c-10.3 0-18.6-8.3-18.6-18.6V718.4c0-10.3 8.3-18.6 18.6-18.6h111.9c10.3 0 18.6 8.3 18.6 18.6v149.2c0 10.2-8.3 18.6-18.6 18.6z m-93.3-37.3h74.6V737h-74.6v111.9z" fill="#bfcbd9" p-id="3007"></path><path d="M344.4 494.6h111.9v373H344.4z" fill="#bfcbd9" p-id="3008"></path><path d="M456.3 886.2H344.4c-10.3 0-18.6-8.3-18.6-18.6v-373c0-10.3 8.3-18.6 18.6-18.6h111.9c10.3 0 18.6 8.3 18.6 18.6v373c0.1 10.2-8.3 18.6-18.6 18.6z m-93.2-37.3h74.6V513.2h-74.6v335.7z" fill="#bfcbd9" p-id="3009"></path><path d="M568.2 606.5h111.9v261.1H568.2z" fill="#bfcbd9" p-id="3010"></path><path d="M680.1 886.2H568.2c-10.3 0-18.6-8.3-18.6-18.6V606.5c0-10.3 8.3-18.6 18.6-18.6h111.9c10.3 0 18.6 8.3 18.6 18.6v261.1c0.1 10.2-8.3 18.6-18.6 18.6z m-93.2-37.3h74.6V625.1h-74.6v223.8z" fill="#bfcbd9" p-id="3011"></path><path d="M792 345.4h111.9v522.1H792z" fill="#bfcbd9" p-id="3012"></path><path d="M903.9 886.2H792c-10.3 0-18.6-8.3-18.6-18.6V345.4c0-10.3 8.3-18.6 18.6-18.6h111.9c10.3 0 18.6 8.3 18.6 18.6v522.1c0 10.3-8.3 18.7-18.6 18.7z m-93.2-37.3h74.6V364h-74.6v484.9z" fill="#bfcbd9" p-id="3013"></path><path d="M941.2 867.5H83.4" fill="#bfcbd9" p-id="3014"></path><path d="M941.2 886.2H83.4c-10.3 0-18.6-8.3-18.6-18.6S73.1 849 83.4 849h857.8c10.3 0 18.6 8.3 18.6 18.6s-8.3 18.6-18.6 18.6z" fill="#bfcbd9" p-id="3015"></path><path d="M597.8 483.6c14.6 14.6 38.2 14.6 52.7 0 14.6-14.6 14.6-38.2 0-52.7-14.5-14.6-38.2-14.6-52.7 0-14.6 14.6-14.5 38.2 0 52.7z" fill="#bfcbd9" p-id="3016"></path><path d="M624.2 513.2c-14.3 0-28.6-5.4-39.6-16.4-21.8-21.8-21.8-57.3 0-79.1 10.6-10.6 24.6-16.4 39.6-16.4 14.9 0 29 5.8 39.5 16.4 21.8 21.8 21.8 57.3 0 79.1-10.9 10.9-25.2 16.4-39.5 16.4z m0-74.6c-5 0-9.7 1.9-13.2 5.5-7.3 7.3-7.3 19.1 0 26.4 7.3 7.3 19.1 7.3 26.4 0 7.3-7.3 7.3-19.1 0-26.4-3.6-3.5-8.2-5.5-13.2-5.5z" fill="#bfcbd9" p-id="3017"></path><path d="M821.6 222.6c14.6 14.6 38.2 14.6 52.7 0 14.6-14.6 14.6-38.2 0-52.7-14.5-14.6-38.2-14.6-52.7 0-14.6 14.5-14.6 38.1 0 52.7z" fill="#bfcbd9" p-id="3018"></path><path d="M847.9 252.1c-14.3 0-28.6-5.4-39.6-16.4-21.8-21.8-21.8-57.3 0-79.1 10.6-10.6 24.6-16.4 39.6-16.4 14.9 0 29 5.8 39.5 16.4 21.8 21.8 21.8 57.3 0 79.1-10.8 11-25.1 16.4-39.5 16.4z m0.1-74.5c-5 0-9.7 1.9-13.2 5.5-7.3 7.3-7.3 19.1 0 26.4 7.3 7.3 19.1 7.3 26.4 0 7.3-7.3 7.3-19.1 0-26.4-3.6-3.6-8.3-5.5-13.2-5.5z" fill="#bfcbd9" p-id="3019"></path><path d="M437.7 364l149.2 74.6" fill="#bfcbd9" p-id="3020"></path><path d="M586.8 457.3c-2.8 0-5.6-0.6-8.3-2l-149.2-74.6c-9.2-4.6-12.9-15.8-8.3-25s15.8-12.9 25-8.3L595.2 422c9.2 4.6 12.9 15.8 8.3 25-3.2 6.5-9.8 10.3-16.7 10.3z" fill="#bfcbd9" p-id="3021"></path><path d="M213.9 531.9l149.2-149.2" fill="#bfcbd9" p-id="3022"></path><path d="M213.9 550.5c-4.8 0-9.5-1.8-13.2-5.5-7.3-7.3-7.3-19.1 0-26.4l149.2-149.2c7.3-7.3 19.1-7.3 26.4 0 7.3 7.3 7.3 19.1 0 26.4L227.1 545.1c-3.7 3.6-8.4 5.4-13.2 5.4z" fill="#bfcbd9" p-id="3023"></path><path d="M661.5 420l149.1-186.5" fill="#bfcbd9" p-id="3024"></path><path d="M661.4 438.6c-4.1 0-8.2-1.3-11.6-4.1-8-6.4-9.3-18.2-2.9-26.2l149.2-186.5c6.5-8 18.2-9.3 26.2-2.9s9.3 18.2 2.9 26.2L676 431.6c-3.7 4.6-9.1 7-14.6 7z" fill="#bfcbd9" p-id="3025"></path><path d="M150.2 595.5c14.6 14.6 38.2 14.6 52.7 0 14.6-14.6 14.6-38.2 0-52.7-14.5-14.6-38.2-14.6-52.7 0s-14.5 38.2 0 52.7z" fill="#bfcbd9" p-id="3026"></path><path d="M176.6 625.1c-14.3 0-28.6-5.4-39.6-16.3-21.8-21.8-21.8-57.3 0-79.1 10.6-10.6 24.6-16.4 39.6-16.4 14.9 0 29 5.8 39.5 16.4 10.5 10.5 16.4 24.6 16.4 39.5 0 14.9-5.8 29-16.4 39.6-10.8 10.8-25.2 16.3-39.5 16.3z m-13.2-42.7c7.3 7.2 19.1 7.2 26.4 0 3.5-3.5 5.5-8.2 5.5-13.2s-1.9-9.7-5.5-13.2c-3.5-3.6-8.2-5.5-13.2-5.5s-9.7 1.9-13.2 5.5c-7.2 7.2-7.2 19.1 0 26.4z" fill="#bfcbd9" p-id="3027"></path><path d="M374 371.8c14.6 14.6 38.2 14.6 52.7 0 14.6-14.6 14.6-38.2 0-52.7-14.5-14.6-38.2-14.6-52.7 0-14.5 14.5-14.5 38.1 0 52.7z" fill="#bfcbd9" p-id="3028"></path><path d="M400.4 401.3c-14.3 0-28.6-5.4-39.6-16.4-21.8-21.8-21.8-57.3 0-79.1 10.6-10.6 24.6-16.4 39.6-16.4 14.9 0 29 5.8 39.5 16.4 21.8 21.8 21.8 57.3 0 79.1-10.9 11-25.2 16.4-39.5 16.4z m0-74.6c-5 0-9.7 1.9-13.2 5.5-7.3 7.3-7.3 19.1 0 26.4 7.3 7.3 19.1 7.3 26.4 0 7.3-7.3 7.3-19.1 0-26.4-3.5-3.5-8.2-5.5-13.2-5.5z" fill="#bfcbd9" p-id="3029"></path><path d="M120.7 825.9v41.7h111.9V745c-73.2 36-111.9 80.9-111.9 80.9z" fill="#bfcbd9" p-id="3030"></path><path d="M232.6 886.2H120.7c-10.3 0-18.6-8.3-18.6-18.6v-41.7c0-4.5 1.6-8.8 4.5-12.2 1.7-1.9 42-48.1 117.8-85.4 5.8-2.8 12.6-2.5 18.1 0.9 5.5 3.4 8.8 9.4 8.8 15.8v122.5c-0.1 10.3-8.4 18.7-18.7 18.7z m-93.3-37.3h74.6v-72.7c-39.4 23.2-64.8 47.1-74.6 57v15.7z" fill="#bfcbd9" p-id="3031"></path><path d="M344.4 707.9v159.6h111.9V701.7c-40.8-2.6-78.1 0-111.9 6.2z" fill="#bfcbd9" p-id="3032"></path><path d="M456.3 886.2H344.4c-10.3 0-18.6-8.3-18.6-18.6V708c0-9 6.4-16.7 15.3-18.3 37.4-6.9 76.6-9.1 116.5-6.5 9.8 0.6 17.4 8.8 17.4 18.6v165.8c0 10.2-8.4 18.6-18.7 18.6z m-93.2-37.3h74.6V719.5c-25.5-0.7-50.4 0.7-74.6 4.3v125.1z" fill="#bfcbd9" p-id="3033"></path><path d="M568.2 867.5h111.9V737.1c-33-3-70.3-8.5-111.9-17.1v147.5z" fill="#bfcbd9" p-id="3034"></path><path d="M680.1 886.2H568.2c-10.3 0-18.6-8.3-18.6-18.6V720c0-5.6 2.5-10.9 6.9-14.5 4.3-3.5 10-4.9 15.6-3.8 39.4 8.1 76.4 13.8 109.8 16.8 9.6 0.9 17 8.9 17 18.6v130.4c-0.1 10.3-8.5 18.7-18.8 18.7z m-93.2-37.3h74.6V754c-23.5-2.6-48.5-6.4-74.6-11.3v106.2z" fill="#bfcbd9" p-id="3035"></path><path d="M792 738.1v129.4h111.9v-159s-32.5 22.7-111.9 29.6z" fill="#bfcbd9" p-id="3036"></path><path d="M903.9 886.2H792c-10.3 0-18.6-8.3-18.6-18.6V738.1c0-9.7 7.4-17.7 17-18.6 72.2-6.3 102.7-26.2 103-26.4 5.7-3.8 13.2-4.2 19.2-1 6.1 3.2 9.9 9.5 9.9 16.4v159c0 10.3-8.3 18.7-18.6 18.7z m-93.2-37.3h74.6v-111c-16.8 6.2-41.2 12.9-74.6 17v94z" fill="#bfcbd9" p-id="3037"></path><path d="M597.8 483.6c14.6 14.6 38.2 14.6 52.7 0 14.6-14.6 14.6-38.2 0-52.7-14.5-14.6-38.2-14.6-52.7 0-14.6 14.6-14.5 38.2 0 52.7z" fill="#bfcbd9" p-id="3038"></path><path d="M624.2 513.2c-14.3 0-28.6-5.4-39.6-16.4-21.8-21.8-21.8-57.3 0-79.1 10.6-10.6 24.6-16.4 39.6-16.4 14.9 0 29 5.8 39.5 16.4 21.8 21.8 21.8 57.3 0 79.1-10.9 10.9-25.2 16.4-39.5 16.4z m0-74.6c-5 0-9.7 1.9-13.2 5.5-7.3 7.3-7.3 19.1 0 26.4 7.3 7.3 19.1 7.3 26.4 0 7.3-7.3 7.3-19.1 0-26.4-3.6-3.5-8.2-5.5-13.2-5.5z" fill="#bfcbd9" p-id="3039"></path><path d="M821.6 222.6c14.6 14.6 38.2 14.6 52.7 0 14.6-14.6 14.6-38.2 0-52.7-14.5-14.6-38.2-14.6-52.7 0-14.6 14.5-14.6 38.1 0 52.7z" fill="#bfcbd9" p-id="3040"></path><path d="M847.9 252.1c-14.3 0-28.6-5.4-39.6-16.4-21.8-21.8-21.8-57.3 0-79.1 10.6-10.6 24.6-16.4 39.6-16.4 14.9 0 29 5.8 39.5 16.4 21.8 21.8 21.8 57.3 0 79.1-10.8 11-25.1 16.4-39.5 16.4z m0.1-74.5c-5 0-9.7 1.9-13.2 5.5-7.3 7.3-7.3 19.1 0 26.4 7.3 7.3 19.1 7.3 26.4 0 7.3-7.3 7.3-19.1 0-26.4-3.6-3.6-8.3-5.5-13.2-5.5z" fill="#bfcbd9" p-id="3041"></path><path d="M437.7 364l149.2 74.6" fill="#bfcbd9" p-id="3042"></path><path d="M586.8 457.3c-2.8 0-5.6-0.6-8.3-2l-149.2-74.6c-9.2-4.6-12.9-15.8-8.3-25s15.8-12.9 25-8.3L595.2 422c9.2 4.6 12.9 15.8 8.3 25-3.2 6.5-9.8 10.3-16.7 10.3z" fill="#bfcbd9" p-id="3043"></path><path d="M213.9 531.9l149.2-149.2" fill="#bfcbd9" p-id="3044"></path><path d="M213.9 550.5c-4.8 0-9.5-1.8-13.2-5.5-7.3-7.3-7.3-19.1 0-26.4l149.2-149.2c7.3-7.3 19.1-7.3 26.4 0 7.3 7.3 7.3 19.1 0 26.4L227.1 545.1c-3.7 3.6-8.4 5.4-13.2 5.4z" fill="#bfcbd9" p-id="3045"></path><path d="M661.5 420l149.1-186.5" fill="#bfcbd9" p-id="3046"></path><path d="M661.4 438.6c-4.1 0-8.2-1.3-11.6-4.1-8-6.4-9.3-18.2-2.9-26.2l149.2-186.5c6.5-8 18.2-9.3 26.2-2.9s9.3 18.2 2.9 26.2L676 431.6c-3.7 4.6-9.1 7-14.6 7z" p-id="3047"></path></svg>